<svg xmlns:dc="http://purl.org/dc/elements/1.1/" 
  xmlns:cc="http://creativecommons.org/ns#" 
  xmlns:rdf="http://www.w3.org/1999/02/22-rdf-syntax-ns#" 
  xmlns:svg="http://www.w3.org/2000/svg" 
  xmlns="http://www.w3.org/2000/svg" id="svg5" viewBox="0 0 1024 768" height="768px" width="1024px" version="1.1">
  <metadata id="metadata11">
    <rdf:rdf>
      <cc:work rdf:about="">
        <dc:format>image/svg+xml</dc:format>
        <dc:type rdf:resource="http://purl.org/dc/dcmitype/StillImage"></dc:type>
      </cc:work>
    </rdf:rdf>
  </metadata>
  <defs id="defs9"></defs>
  <g id="logo-group">
    <g id="title" style="font-style:normal;font-weight:700;font-size:72px;line-height:1;font-family:Phenomena;font-variant-ligatures:none;text-align:center;text-anchor:middle" aria-label="ZMODEMNET">
      <path id="path13" style="font-style: normal; font-weight: 700; font-size: 72px; line-height: 1; font-family: Phenomena; font-variant-ligatures: none; text-align: center; text-anchor: middle; fill: rgb(127, 127, 127);" d="m 371.231,113.952 16.92,-36.072 c 0.648,-1.296 0.72,-2.376 0.648,-3.888 V 72.624 C 388.727,70.536 387.575,69.6 385.631,69.6 h -18.504 c -0.576,0 -0.936,0.36 -0.936,0.936 v 4.104 c 0,0.648 0.36,1.008 0.936,1.008 h 15.048 l -16.776,36 c -0.648,1.296 -0.792,2.304 -0.792,3.888 v 1.368 c 0,1.944 1.152,3.096 3.168,3.096 h 20.304 c 0.576,0 0.936,-0.36 0.936,-1.008 v -4.032 c 0,-0.648 -0.36,-1.008 -0.936,-1.008 z" transform="translate(0 236.40209982878957) translate(251.99999999999983 103.40983221388124) scale(1.75600333640634) translate(-364.607 -69.6)"></path>
      <path id="path15" style="font-style: normal; font-weight: 700; font-size: 72px; line-height: 1; font-family: Phenomena; font-variant-ligatures: none; text-align: center; text-anchor: middle; fill: rgb(127, 127, 127);" d="m 423.6785,68.808 c -3.96,0 -6.552,1.872 -8.496,4.536 -1.944,-2.664 -4.464,-4.536 -8.496,-4.536 -7.272,0 -11.736,5.256 -11.736,13.392 v 36.792 c 0,0.648 0.36,1.008 0.936,1.008 h 4.536 c 0.576,0 0.936,-0.36 0.936,-1.008 v -37.08 c 0,-4.464 1.8,-6.984 5.328,-6.984 3.096,0 5.256,2.52 5.256,6.984 v 37.08 c 0,0.648 0.36,1.008 0.936,1.008 h 4.536 c 0.576,0 0.936,-0.36 0.936,-1.008 v -37.08 c 0,-4.464 2.088,-6.984 5.328,-6.984 3.384,0 5.256,2.52 5.256,6.984 v 37.08 c 0,0.648 0.36,1.008 0.936,1.008 h 4.536 c 0.648,0 1.008,-0.36 1.008,-1.008 V 82.2 c 0,-8.136 -4.536,-13.392 -11.736,-13.392 z" transform="translate(0 236.40209982878957) translate(305.2832872382455 102.01907757144745) scale(1.75600333640634) translate(-394.9505 -68.808)"></path>
      <path id="path17" style="font-style: normal; font-weight: 700; font-size: 72px; line-height: 1; font-family: Phenomena; font-variant-ligatures: none; text-align: center; text-anchor: middle; fill: rgb(127, 127, 127);" d="m 455.13687,120.72 c 7.488,0 12.672,-5.472 12.672,-13.032 V 81.912 c 0,-7.56 -5.184,-13.032 -12.672,-13.032 -7.488,0 -12.744,5.472 -12.744,13.536 v 24.768 c 0,8.064 5.256,13.536 12.744,13.536 z m 0,-6.048 c -3.672,0 -6.19199,-2.736 -6.19199,-7.2 V 82.128 c 0,-4.464 2.51999,-7.2 6.19199,-7.2 3.672,0 6.12,2.736 6.12,6.696 v 26.352 c 0,3.96 -2.448,6.696 -6.12,6.696 z" transform="translate(0 236.40209982878957) translate(388.5922472452697 102.1455098116687) scale(1.75600333640634) translate(-442.39287 -68.88)"></path>
      <path id="path19" style="font-style: normal; font-weight: 700; font-size: 72px; line-height: 1; font-family: Phenomena; font-variant-ligatures: none; text-align: center; text-anchor: middle; fill: rgb(130, 88, 103);" d="m 478.2095,120.216 h 9.288 c 7.488,0 12.312,-5.472 12.312,-13.032 V 82.416 c 0,-7.56 -4.752,-13.032 -12.312,-13.032 h -9.288 c -1.872,0 -2.952,1.008 -2.952,2.88 v 45.072 c 0,1.872 1.08,2.88 2.952,2.88 z m 3.6,-6.048 V 75.432 h 5.472 c 3.816,0 5.976,2.736 5.976,6.84 v 25.056 c 0,4.104 -2.232,6.84 -5.976,6.84 z" transform="translate(0 236.40209982878957) translate(446.30264717502956 103.0305354932175) scale(1.75600333640634) translate(-475.2575 -69.384)"></path>
      <path id="path21" style="font-style: normal; font-weight: 700; font-size: 72px; line-height: 1; font-family: Phenomena; font-variant-ligatures: none; text-align: center; text-anchor: middle; fill: rgb(130, 88, 103);" d="m 518.408,120.216 h 7.56 c 0.576,0 0.936,-0.36 0.936,-0.936 v -4.104 c 0,-0.648 -0.36,-1.008 -0.936,-1.008 h -7.056 c -3.744,0 -6.264,-2.88 -6.264,-6.984 v -9.72 h 11.52 c 0.648,0 1.008,-0.36 1.008,-1.008 v -3.888 c 0,-0.648 -0.36,-1.008 -1.008,-1.008 h -11.52 v -9.144 c 0,-4.104 2.52,-6.984 6.264,-6.984 h 7.056 c 0.576,0 0.936,-0.36 0.936,-1.008 V 70.32 c 0,-0.576 -0.36,-0.936 -0.936,-0.936 h -7.56 c -7.272,0 -12.312,5.472 -12.312,12.888 v 25.056 c 0,7.416 5.04,12.888 12.312,12.888 z" transform="translate(0 236.40209982878957) translate(500.4551560647965 103.0305354932175) scale(1.75600333640634) translate(-506.096 -69.384)"></path>
      <path id="path23" style="font-style: normal; font-weight: 700; font-size: 72px; line-height: 1; font-family: Phenomena; font-variant-ligatures: none; text-align: center; text-anchor: middle; fill: rgb(132, 54, 82);" d="m 561.63162,68.808 c -3.96,0 -6.552,1.872 -8.496,4.536 -1.94399,-2.664 -4.464,-4.536 -8.49599,-4.536 -7.27201,0 -11.736,5.256 -11.736,13.392 v 36.792 c 0,0.648 0.36,1.008 0.93599,1.008 h 4.53601 c 0.576,0 0.936,-0.36 0.936,-1.008 v -37.08 c 0,-4.464 1.79999,-6.984 5.328,-6.984 3.096,0 5.25599,2.52 5.25599,6.984 v 37.08 c 0,0.648 0.36,1.008 0.93601,1.008 h 4.53599 c 0.576,0 0.936,-0.36 0.936,-1.008 v -37.08 c 0,-4.464 2.088,-6.984 5.328,-6.984 3.384,0 5.256,2.52 5.256,6.984 v 37.08 c 0,0.648 0.36,1.008 0.936,1.008 h 4.53601 c 0.64799,0 1.00799,-0.36 1.00799,-1.008 V 82.2 c 0,-8.136 -4.53599,-13.392 -11.736,-13.392 z" transform="translate(0 236.40209982878957) translate(547.5294437859432 102.01907757144745) scale(1.75600333640634) translate(-532.90363 -68.808)"></path>
      <path id="path25" style="font-style: normal; font-weight: 700; font-size: 72px; line-height: 1; font-family: Phenomena; font-variant-ligatures: none; text-align: center; text-anchor: middle; fill: rgb(132, 54, 82);" d="m 582.074,120 h 4.608 c 0.576,0 0.936,-0.36 0.936,-1.008 V 81.768 c 0,-4.104 2.232,-6.84 5.832,-6.84 3.6,0 5.832,2.736 5.832,6.84 v 37.224 c 0,0.648 0.432,1.008 1.008,1.008 h 4.536 c 0.648,0 1.008,-0.36 1.008,-1.008 V 82.056 c 0,-7.776 -4.896,-13.248 -12.384,-13.248 -7.488,0 -12.312,5.472 -12.312,13.248 v 36.936 c 0,0.648 0.36,1.008 0.936,1.008 z" transform="translate(0 236.40209982878957) translate(632.2291584354011 102.01907757144745) scale(1.75600333640634) translate(-581.138 -68.808)"></path>
      <path id="path27" style="font-style: normal; font-weight: 700; font-size: 72px; line-height: 1; font-family: Phenomena; font-variant-ligatures: none; text-align: center; text-anchor: middle; fill: rgb(135, 15, 57);" d="m 625.14238,120.216 h 7.55999 c 0.576,0 0.936,-0.36 0.936,-0.936 v -4.104 c 0,-0.648 -0.36,-1.008 -0.936,-1.008 h -7.05599 c -3.74401,0 -6.264,-2.88 -6.264,-6.984 v -9.72 h 11.51999 c 0.64801,0 1.00801,-0.36 1.00801,-1.008 v -3.888 c 0,-0.648 -0.36,-1.008 -1.00801,-1.008 h -11.51999 v -9.144 c 0,-4.104 2.51999,-6.984 6.264,-6.984 h 7.05599 c 0.576,0 0.936,-0.36 0.936,-1.008 V 70.32 c 0,-0.576 -0.36,-0.936 -0.936,-0.936 h -7.55999 c -7.27201,0 -12.31201,5.472 -12.31201,12.888 v 25.056 c 0,7.416 5.04,12.888 12.31201,12.888 z" transform="translate(0 236.40209982878957) translate(687.8810658940253 103.0305354932175) scale(1.75600333640634) translate(-612.83037 -69.384)"></path>
      <path id="path29" style="font-style: normal; font-weight: 700; font-size: 72px; line-height: 1; font-family: Phenomena; font-variant-ligatures: none; text-align: center; text-anchor: middle; fill: rgb(135, 15, 57);" d="m 659.726,69.6 h -22.104 c -0.576,0 -0.936,0.36 -0.936,0.936 v 4.104 c 0,0.648 0.36,1.008 0.936,1.008 h 7.848 v 43.344 c 0,0.648 0.36,1.008 0.936,1.008 h 4.536 c 0.648,0 1.008,-0.36 1.008,-1.008 V 75.648 h 7.776 c 0.648,0 1.008,-0.36 1.008,-1.008 v -4.104 c 0,-0.576 -0.36,-0.936 -1.008,-0.936 z" transform="translate(0 236.40209982878957) translate(729.7716317661004 103.40983221388124) scale(1.75600333640634) translate(-636.686 -69.6)"></path>
    </g>
    <g id="tagline" style="font-style:oblique;font-weight:normal;font-size:32px;line-height:1;font-family:'Fira Sans Condensed';font-variant-ligatures:none;text-align:center;text-anchor:middle"></g>
  </g>
</svg>