<?xml version="1.0" encoding="UTF-8" standalone="no"?>
<!DOCTYPE svg PUBLIC "-//W3C//DTD SVG 1.1//EN" "http://www.w3.org/Graphics/SVG/1.1/DTD/svg11.dtd">
<svg version="1.1" xmlns="http://www.w3.org/2000/svg" xmlns:xlink="http://www.w3.org/1999/xlink" preserveAspectRatio="xMidYMid meet" viewBox="0 0 530 100" width="530" height="100"><defs><path d="M16.83 83.11C34.66 45.1 44.56 23.99 46.54 19.76C47.68 17.49 47.81 15.59 47.68 12.94C47.68 12.7 47.68 10.77 47.68 10.53C47.55 6.87 45.53 5.22 42.12 5.22C38.87 5.22 12.87 5.22 9.62 5.22C8.61 5.22 7.98 5.86 7.98 6.87C7.98 7.59 7.98 13.35 7.98 14.07C7.98 15.21 8.61 15.84 9.62 15.84C11.39 15.84 20.19 15.84 36.05 15.84C18.37 53.77 8.55 74.85 6.59 79.06C5.45 81.34 5.2 83.11 5.2 85.89C5.2 86.13 5.2 88.05 5.2 88.29C5.2 91.7 7.22 93.73 10.76 93.73C14.33 93.73 42.85 93.73 46.42 93.73C47.43 93.73 48.06 93.09 48.06 91.96C48.06 91.25 48.06 85.58 48.06 84.88C48.06 83.74 47.43 83.11 46.42 83.11C42.47 83.11 32.61 83.11 16.83 83.11Z" id="dvGEu2hQr"></path><path d="M94.01 11.8C90.6 7.12 86.17 3.83 79.09 3.83C66.32 3.83 58.48 13.06 58.48 27.35C58.48 33.81 58.48 85.5 58.48 91.96C58.48 93.09 59.11 93.73 60.13 93.73C60.92 93.73 67.29 93.73 68.09 93.73C69.1 93.73 69.73 93.09 69.73 91.96C69.73 85.45 69.73 33.36 69.73 26.84C69.73 19.01 72.9 14.58 79.09 14.58C84.53 14.58 88.32 19.01 88.32 26.84C88.32 33.36 88.32 85.45 88.32 91.96C88.32 93.09 88.95 93.73 89.96 93.73C90.76 93.73 97.13 93.73 97.93 93.73C98.94 93.73 99.57 93.09 99.57 91.96C99.57 85.45 99.57 33.36 99.57 26.84C99.57 19.01 103.24 14.58 108.93 14.58C114.87 14.58 118.16 19.01 118.16 26.84C118.16 33.36 118.16 85.45 118.16 91.96C118.16 93.09 118.79 93.73 119.8 93.73C120.6 93.73 126.97 93.73 127.77 93.73C128.9 93.73 129.54 93.09 129.54 91.96C129.54 85.5 129.54 33.81 129.54 27.35C129.54 13.06 121.57 3.83 108.93 3.83C101.97 3.83 97.42 7.12 94.01 11.8Z" id="agP7JHSYP"></path><path d="M166.11 4.03L167.06 4.12L167.99 4.24L168.9 4.4L169.8 4.59L170.67 4.81L171.53 5.07L172.37 5.35L173.19 5.67L173.99 6.02L174.77 6.39L175.53 6.8L176.27 7.24L176.99 7.7L177.68 8.19L178.35 8.71L179 9.26L179.63 9.83L180.23 10.42L180.8 11.05L181.35 11.69L181.88 12.36L182.38 13.05L182.85 13.77L183.29 14.51L183.71 15.27L184.1 16.05L184.46 16.85L184.79 17.67L185.1 18.51L185.37 19.37L185.61 20.24L185.82 21.14L186 22.05L186.15 22.98L186.27 23.92L186.35 24.88L186.4 25.86L186.42 26.84L186.42 72.11L186.4 73.1L186.35 74.07L186.27 75.03L186.15 75.97L186 76.9L185.82 77.81L185.61 78.71L185.37 79.58L185.1 80.44L184.79 81.28L184.46 82.1L184.1 82.9L183.71 83.68L183.29 84.44L182.85 85.18L182.38 85.9L181.88 86.59L181.35 87.26L180.8 87.91L180.23 88.53L179.63 89.12L179 89.7L178.35 90.24L177.68 90.76L176.99 91.25L176.27 91.71L175.53 92.15L174.77 92.56L173.99 92.93L173.19 93.28L172.37 93.6L171.53 93.89L170.67 94.14L169.8 94.36L168.9 94.55L167.99 94.71L167.06 94.83L166.11 94.92L165.15 94.97L164.17 94.99L163.19 94.97L162.23 94.92L161.28 94.83L160.35 94.71L159.43 94.55L158.53 94.36L157.65 94.14L156.79 93.88L155.95 93.59L155.13 93.27L154.32 92.92L153.54 92.53L152.77 92.12L152.03 91.68L151.31 91.2L150.61 90.7L149.94 90.17L149.28 89.61L148.65 89.03L148.05 88.42L147.47 87.78L146.91 87.11L146.38 86.42L145.88 85.71L145.4 84.97L144.95 84.2L144.53 83.41L144.14 82.6L143.77 81.77L143.44 80.91L143.13 80.03L142.86 79.13L142.61 78.21L142.4 77.27L142.21 76.31L142.06 75.33L141.94 74.33L141.86 73.31L141.81 72.28L141.79 71.22L141.79 27.73L141.81 26.68L141.86 25.64L141.94 24.62L142.06 23.62L142.21 22.64L142.4 21.68L142.61 20.74L142.86 19.82L143.13 18.92L143.44 18.04L143.77 17.18L144.14 16.35L144.53 15.54L144.95 14.75L145.4 13.99L145.88 13.25L146.38 12.53L146.91 11.84L147.47 11.17L148.05 10.53L148.65 9.92L149.28 9.34L149.94 8.78L150.61 8.25L151.31 7.75L152.03 7.27L152.77 6.83L153.54 6.42L154.32 6.03L155.13 5.68L155.95 5.36L156.79 5.07L157.65 4.82L158.53 4.59L159.43 4.4L160.35 4.24L161.28 4.12L162.23 4.03L163.19 3.98L164.17 3.96L165.15 3.98L166.11 4.03ZM162.98 14.64L162.41 14.71L161.85 14.8L161.3 14.93L160.77 15.08L160.25 15.25L159.75 15.45L159.26 15.68L158.79 15.93L158.33 16.21L157.9 16.51L157.47 16.84L157.07 17.19L156.68 17.56L156.31 17.96L155.97 18.38L155.64 18.83L155.33 19.29L155.04 19.78L154.77 20.29L154.52 20.82L154.29 21.37L154.09 21.94L153.91 22.53L153.75 23.15L153.61 23.78L153.5 24.43L153.41 25.1L153.35 25.79L153.31 26.5L153.3 27.22L153.3 71.73L153.31 72.45L153.35 73.16L153.41 73.85L153.5 74.52L153.61 75.17L153.75 75.81L153.91 76.42L154.09 77.01L154.29 77.58L154.52 78.13L154.77 78.66L155.04 79.17L155.33 79.66L155.64 80.13L155.97 80.57L156.31 80.99L156.68 81.39L157.07 81.76L157.47 82.11L157.9 82.44L158.33 82.74L158.79 83.02L159.26 83.27L159.75 83.5L160.25 83.7L160.77 83.88L161.3 84.03L161.85 84.15L162.41 84.25L162.98 84.31L163.57 84.36L164.17 84.37L164.77 84.36L165.35 84.32L165.92 84.25L166.48 84.15L167.03 84.03L167.56 83.88L168.07 83.71L168.57 83.51L169.05 83.29L169.52 83.04L169.97 82.78L170.4 82.48L170.82 82.17L171.22 81.83L171.6 81.48L171.96 81.1L172.3 80.7L172.63 80.28L172.93 79.85L173.22 79.39L173.48 78.91L173.72 78.42L173.94 77.91L174.14 77.38L174.32 76.84L174.48 76.28L174.61 75.7L174.72 75.11L174.8 74.51L174.87 73.89L174.9 73.26L174.92 72.61L174.92 26.34L174.9 25.69L174.87 25.06L174.8 24.44L174.72 23.84L174.61 23.25L174.48 22.67L174.32 22.11L174.14 21.57L173.94 21.04L173.72 20.53L173.48 20.04L173.22 19.56L172.93 19.11L172.63 18.67L172.3 18.25L171.96 17.85L171.6 17.47L171.22 17.12L170.82 16.78L170.4 16.47L169.97 16.18L169.52 15.91L169.05 15.66L168.57 15.44L168.07 15.24L167.56 15.07L167.03 14.92L166.48 14.8L165.92 14.7L165.35 14.64L164.77 14.59L164.17 14.58L163.57 14.59L162.98 14.64Z" id="a23i7AEjXf"></path><path d="M222.95 4.92L223.9 5L224.83 5.13L225.74 5.28L226.62 5.47L227.49 5.7L228.34 5.95L229.17 6.24L229.97 6.55L230.76 6.9L231.52 7.28L232.26 7.69L232.98 8.12L233.67 8.59L234.34 9.08L234.99 9.6L235.61 10.14L236.21 10.71L236.78 11.31L237.33 11.93L237.86 12.58L238.35 13.25L238.83 13.94L239.27 14.65L239.69 15.39L240.09 16.15L240.45 16.93L240.79 17.73L241.1 18.55L241.39 19.39L241.64 20.25L241.87 21.13L242.06 22.02L242.23 22.93L242.37 23.86L242.48 24.81L242.55 25.77L242.6 26.74L242.61 27.73L242.61 71.22L242.6 72.21L242.55 73.18L242.47 74.14L242.36 75.09L242.22 76.02L242.06 76.93L241.86 77.82L241.63 78.7L241.37 79.56L241.09 80.4L240.77 81.22L240.43 82.02L240.06 82.8L239.66 83.56L239.24 84.3L238.79 85.01L238.32 85.7L237.81 86.37L237.29 87.02L236.74 87.64L236.16 88.24L235.56 88.81L234.93 89.36L234.29 89.87L233.61 90.37L232.92 90.83L232.2 91.27L231.46 91.67L230.7 92.05L229.92 92.4L229.12 92.71L228.29 93L227.45 93.26L226.58 93.48L225.7 93.67L224.8 93.82L223.87 93.95L222.93 94.03L221.97 94.09L220.99 94.11L204.68 94.11L204.44 94.1L204.2 94.09L203.97 94.08L203.74 94.05L203.52 94.02L203.3 93.99L203.09 93.94L202.88 93.9L202.68 93.84L202.49 93.78L202.3 93.71L202.12 93.63L201.94 93.55L201.77 93.47L201.6 93.37L201.44 93.27L201.29 93.17L201.14 93.05L201 92.94L200.86 92.81L200.73 92.68L200.61 92.54L200.49 92.4L200.38 92.25L200.27 92.09L200.18 91.93L200.08 91.76L200 91.59L199.92 91.41L199.85 91.23L199.78 91.03L199.72 90.84L199.67 90.63L199.63 90.42L199.59 90.21L199.56 89.99L199.53 89.76L199.52 89.53L199.5 89.29L199.5 89.05L199.5 9.9L199.5 9.66L199.52 9.42L199.53 9.19L199.56 8.96L199.59 8.74L199.63 8.53L199.67 8.32L199.72 8.11L199.78 7.92L199.85 7.73L199.92 7.54L200 7.36L200.08 7.19L200.18 7.02L200.27 6.86L200.38 6.7L200.49 6.55L200.61 6.41L200.73 6.27L200.86 6.14L201 6.02L201.14 5.9L201.29 5.78L201.44 5.68L201.6 5.58L201.77 5.48L201.94 5.4L202.12 5.32L202.3 5.24L202.49 5.17L202.68 5.11L202.88 5.06L203.09 5.01L203.3 4.96L203.52 4.93L203.74 4.9L203.97 4.87L204.2 4.86L204.44 4.85L204.68 4.84L220.99 4.84L221.98 4.86L222.95 4.92ZM211.01 83.49L220.62 83.49L221.21 83.47L221.78 83.43L222.34 83.37L222.89 83.28L223.42 83.16L223.93 83.02L224.43 82.86L224.91 82.67L225.38 82.46L225.83 82.23L226.26 81.97L226.67 81.7L227.07 81.4L227.45 81.08L227.82 80.73L228.16 80.37L228.49 79.99L228.8 79.59L229.09 79.17L229.36 78.73L229.62 78.27L229.85 77.79L230.06 77.3L230.26 76.79L230.44 76.26L230.59 75.71L230.73 75.15L230.84 74.58L230.94 73.99L231.01 73.38L231.07 72.76L231.1 72.12L231.11 71.47L231.11 27.48L231.1 26.83L231.07 26.19L231.02 25.57L230.94 24.97L230.85 24.37L230.74 23.8L230.61 23.24L230.45 22.69L230.28 22.16L230.09 21.65L229.88 21.16L229.65 20.68L229.4 20.22L229.13 19.78L228.84 19.36L228.54 18.96L228.21 18.58L227.87 18.22L227.51 17.88L227.13 17.56L226.73 17.26L226.31 16.98L225.88 16.72L225.43 16.49L224.96 16.28L224.48 16.09L223.98 15.93L223.46 15.79L222.92 15.67L222.37 15.58L221.8 15.52L221.22 15.48L220.62 15.47L211.01 15.47L211.01 83.49Z" id="c46stT1sB"></path><path d="M288.55 94.11C289.56 94.11 290.19 93.47 290.19 92.46C290.19 91.74 290.19 85.98 290.19 85.26C290.19 84.12 289.56 83.49 288.55 83.49C287.31 83.49 277.4 83.49 276.16 83.49C269.58 83.49 265.16 78.43 265.16 71.22C265.16 70.08 265.16 64.39 265.16 54.15C277.3 54.15 284.04 54.15 285.39 54.15C286.53 54.15 287.16 53.52 287.16 52.38C287.16 51.7 287.16 46.24 287.16 45.56C287.16 44.42 286.53 43.79 285.39 43.79C284.04 43.79 277.3 43.79 265.16 43.79C265.16 34.15 265.16 28.8 265.16 27.73C265.16 20.52 269.58 15.47 276.16 15.47C277.4 15.47 287.31 15.47 288.55 15.47C289.56 15.47 290.19 14.83 290.19 13.7C290.19 12.97 290.19 7.21 290.19 6.49C290.19 5.48 289.56 4.84 288.55 4.84C287.22 4.84 276.6 4.84 275.27 4.84C262.5 4.84 253.65 14.45 253.65 27.48C253.65 31.88 253.65 67.07 253.65 71.47C253.65 84.5 262.5 94.11 275.27 94.11C277.93 94.11 287.22 94.11 288.55 94.11Z" id="c2tFRk06Tq"></path><path d="M336.26 11.8C332.84 7.12 328.42 3.83 321.34 3.83C308.57 3.83 300.73 13.06 300.73 27.35C300.73 33.81 300.73 85.5 300.73 91.96C300.73 93.09 301.36 93.73 302.37 93.73C303.17 93.73 309.54 93.73 310.34 93.73C311.35 93.73 311.98 93.09 311.98 91.96C311.98 85.45 311.98 33.36 311.98 26.84C311.98 19.01 315.14 14.58 321.34 14.58C326.77 14.58 330.57 19.01 330.57 26.84C330.57 33.36 330.57 85.45 330.57 91.96C330.57 93.09 331.2 93.73 332.21 93.73C333.01 93.73 339.38 93.73 340.17 93.73C341.19 93.73 341.82 93.09 341.82 91.96C341.82 85.45 341.82 33.36 341.82 26.84C341.82 19.01 345.48 14.58 351.17 14.58C357.12 14.58 360.4 19.01 360.4 26.84C360.4 33.36 360.4 85.45 360.4 91.96C360.4 93.09 361.04 93.73 362.05 93.73C362.84 93.73 369.22 93.73 370.01 93.73C371.15 93.73 371.78 93.09 371.78 91.96C371.78 85.5 371.78 33.81 371.78 27.35C371.78 13.06 363.82 3.83 351.17 3.83C344.22 3.83 339.67 7.12 336.26 11.8Z" id="j138MRxVpo"></path><path d="M395.16 93.73C396.17 93.73 396.81 93.09 396.81 91.96C396.81 85.42 396.81 33.13 396.81 26.59C396.81 19.38 400.73 14.58 407.05 14.58C413.37 14.58 417.29 19.38 417.29 26.59C417.29 33.13 417.29 85.42 417.29 91.96C417.29 93.09 418.05 93.73 419.06 93.73C419.86 93.73 426.23 93.73 427.02 93.73C428.16 93.73 428.79 93.09 428.79 91.96C428.79 85.47 428.79 33.58 428.79 27.1C428.79 13.44 420.2 3.83 407.05 3.83C393.9 3.83 385.43 13.44 385.43 27.1C385.43 33.58 385.43 85.47 385.43 91.96C385.43 93.09 386.06 93.73 387.07 93.73C388.69 93.73 394.35 93.73 395.16 93.73Z" id="d9euoYD6RM"></path><path d="M475.97 94.11C476.99 94.11 477.62 93.47 477.62 92.46C477.62 91.74 477.62 85.98 477.62 85.26C477.62 84.12 476.99 83.49 475.97 83.49C474.74 83.49 464.82 83.49 463.58 83.49C457.01 83.49 452.58 78.43 452.58 71.22C452.58 70.08 452.58 64.39 452.58 54.15C464.72 54.15 471.47 54.15 472.81 54.15C473.95 54.15 474.58 53.52 474.58 52.38C474.58 51.7 474.58 46.24 474.58 45.56C474.58 44.42 473.95 43.79 472.81 43.79C471.47 43.79 464.72 43.79 452.58 43.79C452.58 34.15 452.58 28.8 452.58 27.73C452.58 20.52 457.01 15.47 463.58 15.47C464.82 15.47 474.74 15.47 475.97 15.47C476.99 15.47 477.62 14.83 477.62 13.7C477.62 12.97 477.62 7.21 477.62 6.49C477.62 5.48 476.99 4.84 475.97 4.84C474.65 4.84 464.03 4.84 462.7 4.84C449.93 4.84 441.08 14.45 441.08 27.48C441.08 31.88 441.08 67.07 441.08 71.47C441.08 84.5 449.93 94.11 462.7 94.11C465.35 94.11 474.65 94.11 475.97 94.11Z" id="b53kATxBlD"></path><path d="M484.61 5.22C483.6 5.22 482.97 5.86 482.97 6.87C482.97 7.59 482.97 13.35 482.97 14.07C482.97 15.21 483.6 15.84 484.61 15.84C485.53 15.84 490.13 15.84 498.39 15.84C498.39 61.51 498.39 86.88 498.39 91.96C498.39 93.09 499.03 93.73 500.04 93.73C500.83 93.73 507.21 93.73 508 93.73C509.14 93.73 509.77 93.09 509.77 91.96C509.77 86.88 509.77 61.51 509.77 15.84C517.97 15.84 522.52 15.84 523.43 15.84C524.57 15.84 525.2 15.21 525.2 14.07C525.2 13.35 525.2 7.59 525.2 6.87C525.2 5.86 524.57 5.22 523.43 5.22C515.67 5.22 488.5 5.22 484.61 5.22Z" id="b751DKq1"></path></defs><g><g><g><use xlink:href="#dvGEu2hQr" opacity="1" fill="#7f7f7f" fill-opacity="1"></use><g><use xlink:href="#dvGEu2hQr" opacity="1" fill-opacity="0" stroke="#000000" stroke-width="1" stroke-opacity="0"></use></g></g><g><use xlink:href="#agP7JHSYP" opacity="1" fill="#7f7f7f" fill-opacity="1"></use><g><use xlink:href="#agP7JHSYP" opacity="1" fill-opacity="0" stroke="#000000" stroke-width="1" stroke-opacity="0"></use></g></g><g><use xlink:href="#a23i7AEjXf" opacity="1" fill="#7f7f7f" fill-opacity="1"></use><g><use xlink:href="#a23i7AEjXf" opacity="1" fill-opacity="0" stroke="#000000" stroke-width="1" stroke-opacity="0"></use></g></g><g><use xlink:href="#c46stT1sB" opacity="1" fill="#825867" fill-opacity="1"></use><g><use xlink:href="#c46stT1sB" opacity="1" fill-opacity="0" stroke="#000000" stroke-width="1" stroke-opacity="0"></use></g></g><g><use xlink:href="#c2tFRk06Tq" opacity="1" fill="#825867" fill-opacity="1"></use><g><use xlink:href="#c2tFRk06Tq" opacity="1" fill-opacity="0" stroke="#000000" stroke-width="1" stroke-opacity="0"></use></g></g><g><use xlink:href="#j138MRxVpo" opacity="1" fill="#843652" fill-opacity="1"></use><g><use xlink:href="#j138MRxVpo" opacity="1" fill-opacity="0" stroke="#000000" stroke-width="1" stroke-opacity="0"></use></g></g><g><use xlink:href="#d9euoYD6RM" opacity="1" fill="#843652" fill-opacity="1"></use><g><use xlink:href="#d9euoYD6RM" opacity="1" fill-opacity="0" stroke="#000000" stroke-width="1" stroke-opacity="0"></use></g></g><g><use xlink:href="#b53kATxBlD" opacity="1" fill="#870f39" fill-opacity="1"></use><g><use xlink:href="#b53kATxBlD" opacity="1" fill-opacity="0" stroke="#000000" stroke-width="1" stroke-opacity="0"></use></g></g><g><use xlink:href="#b751DKq1" opacity="1" fill="#870f39" fill-opacity="1"></use><g><use xlink:href="#b751DKq1" opacity="1" fill-opacity="0" stroke="#000000" stroke-width="1" stroke-opacity="0"></use></g></g></g></g></svg>